<mxfile host="app.diagrams.net" modified="2023-03-15T07:26:44.834Z" agent="5.0 (Windows NT 10.0; Win64; x64) AppleWebKit/537.36 (KHTML, like Gecko) Chrome/111.0.0.0 Safari/537.36" etag="8nnGu6BTT-qW24HetRER" version="21.0.6" type="github">
  <diagram id="2o_g12qzqOKrg0OXxnGJ" name="Sayfa -2">
    <mxGraphModel dx="1887" dy="859" grid="1" gridSize="10" guides="1" tooltips="1" connect="1" arrows="1" fold="1" page="1" pageScale="1" pageWidth="1169" pageHeight="827" math="0" shadow="0">
      <root>
        <mxCell id="0" />
        <mxCell id="1" parent="0" />
        <mxCell id="M6u84m0omHOoOw8vYrXv-44" value="" style="rounded=0;whiteSpace=wrap;html=1;shadow=0;perimeter=ellipsePerimeter;movable=0;resizable=0;rotatable=0;deletable=0;editable=0;locked=1;connectable=0;strokeWidth=4;fillColor=#dee9f6;strokeColor=#6c8ebf;" parent="1" vertex="1">
          <mxGeometry x="240" y="200" width="600" height="1170" as="geometry" />
        </mxCell>
        <mxCell id="zQ0Ev5unj7IJxuBx6Gpg-1" value="Şablon Oluşturma Sayfası" style="rounded=0;whiteSpace=wrap;html=1;fillColor=#dae8fc;strokeColor=#6c8ebf;movable=0;resizable=0;rotatable=0;deletable=0;editable=0;locked=1;connectable=0;" parent="1" vertex="1">
          <mxGeometry width="1160" height="40" as="geometry" />
        </mxCell>
        <mxCell id="M6u84m0omHOoOw8vYrXv-1" value="Oluşturma" style="rounded=1;whiteSpace=wrap;html=1;fillColor=#dae8fc;strokeColor=#6c8ebf;" parent="1" vertex="1">
          <mxGeometry y="40" width="120" height="40" as="geometry" />
        </mxCell>
        <mxCell id="M6u84m0omHOoOw8vYrXv-2" value="Önizleme" style="rounded=1;whiteSpace=wrap;html=1;" parent="1" vertex="1">
          <mxGeometry x="120" y="40" width="120" height="40" as="geometry" />
        </mxCell>
        <mxCell id="M6u84m0omHOoOw8vYrXv-3" value="Kurallar" style="rounded=1;whiteSpace=wrap;html=1;" parent="1" vertex="1">
          <mxGeometry x="240" y="40" width="120" height="40" as="geometry" />
        </mxCell>
        <mxCell id="M6u84m0omHOoOw8vYrXv-28" value="Radio Button" style="rounded=0;whiteSpace=wrap;html=1;" parent="1" vertex="1">
          <mxGeometry y="120" width="120" height="40" as="geometry" />
        </mxCell>
        <mxCell id="M6u84m0omHOoOw8vYrXv-32" value="Text" style="rounded=0;whiteSpace=wrap;html=1;" parent="1" vertex="1">
          <mxGeometry y="360" width="120" height="40" as="geometry" />
        </mxCell>
        <mxCell id="M6u84m0omHOoOw8vYrXv-33" value="Image Upload" style="rounded=0;whiteSpace=wrap;html=1;" parent="1" vertex="1">
          <mxGeometry y="320" width="120" height="40" as="geometry" />
        </mxCell>
        <mxCell id="M6u84m0omHOoOw8vYrXv-34" value="Triple Scale Score" style="rounded=0;whiteSpace=wrap;html=1;" parent="1" vertex="1">
          <mxGeometry y="280" width="120" height="40" as="geometry" />
        </mxCell>
        <mxCell id="M6u84m0omHOoOw8vYrXv-35" value="Score Scale" style="rounded=0;whiteSpace=wrap;html=1;" parent="1" vertex="1">
          <mxGeometry y="160" width="120" height="40" as="geometry" />
        </mxCell>
        <mxCell id="M6u84m0omHOoOw8vYrXv-36" value="Checkbox" style="rounded=0;whiteSpace=wrap;html=1;" parent="1" vertex="1">
          <mxGeometry y="200" width="120" height="40" as="geometry" />
        </mxCell>
        <mxCell id="M6u84m0omHOoOw8vYrXv-37" value="Boolean Score&amp;nbsp;" style="rounded=0;whiteSpace=wrap;html=1;" parent="1" vertex="1">
          <mxGeometry y="240" width="120" height="40" as="geometry" />
        </mxCell>
        <mxCell id="M6u84m0omHOoOw8vYrXv-39" value="" style="endArrow=none;html=1;rounded=0;movable=0;resizable=0;rotatable=0;deletable=0;editable=0;locked=1;connectable=0;" parent="1" edge="1">
          <mxGeometry width="50" height="50" relative="1" as="geometry">
            <mxPoint x="200" y="2480" as="sourcePoint" />
            <mxPoint x="200" y="120" as="targetPoint" />
          </mxGeometry>
        </mxCell>
        <mxCell id="M6u84m0omHOoOw8vYrXv-40" value="" style="endArrow=none;html=1;rounded=0;movable=0;resizable=0;rotatable=0;deletable=0;editable=0;locked=1;connectable=0;" parent="1" edge="1">
          <mxGeometry width="50" height="50" relative="1" as="geometry">
            <mxPoint x="200" y="120" as="sourcePoint" />
            <mxPoint x="880" y="120" as="targetPoint" />
          </mxGeometry>
        </mxCell>
        <mxCell id="M6u84m0omHOoOw8vYrXv-41" value="" style="endArrow=none;html=1;rounded=0;movable=0;resizable=0;rotatable=0;deletable=0;editable=0;locked=1;connectable=0;" parent="1" edge="1">
          <mxGeometry width="50" height="50" relative="1" as="geometry">
            <mxPoint x="880" y="2480" as="sourcePoint" />
            <mxPoint x="880" y="120" as="targetPoint" />
          </mxGeometry>
        </mxCell>
        <mxCell id="M6u84m0omHOoOw8vYrXv-42" value="Şablon Adı" style="text;html=1;strokeColor=none;fillColor=none;align=left;verticalAlign=middle;whiteSpace=wrap;rounded=0;fontStyle=1;fontSize=14;" parent="1" vertex="1">
          <mxGeometry x="240" y="130" width="80" height="30" as="geometry" />
        </mxCell>
        <mxCell id="M6u84m0omHOoOw8vYrXv-43" value="Soru Gurubu açıklaması" style="text;html=1;strokeColor=none;fillColor=none;align=left;verticalAlign=middle;whiteSpace=wrap;rounded=0;" parent="1" vertex="1">
          <mxGeometry x="240" y="220" width="165" height="40" as="geometry" />
        </mxCell>
        <mxCell id="M6u84m0omHOoOw8vYrXv-45" value="Grup Adı" style="text;html=1;strokeColor=none;fillColor=none;align=left;verticalAlign=middle;whiteSpace=wrap;rounded=0;fontStyle=1;fontSize=14;" parent="1" vertex="1">
          <mxGeometry x="240" y="210" width="80" height="30" as="geometry" />
        </mxCell>
        <mxCell id="M6u84m0omHOoOw8vYrXv-48" value="" style="rounded=0;whiteSpace=wrap;html=1;" parent="1" vertex="1">
          <mxGeometry x="280" y="280" width="520" height="180" as="geometry" />
        </mxCell>
        <mxCell id="M6u84m0omHOoOw8vYrXv-49" value="1. Lorem ipsum dolor sit amet, consectetur adipiscing elit, sed do eiusmod tempor incididunt ut labore et dolore magna aliqua.&amp;nbsp;" style="text;html=1;strokeColor=none;fillColor=none;align=left;verticalAlign=middle;whiteSpace=wrap;rounded=0;" parent="1" vertex="1">
          <mxGeometry x="280" y="280" width="520" height="30" as="geometry" />
        </mxCell>
        <mxCell id="M6u84m0omHOoOw8vYrXv-57" value="Seçenek 1" style="html=1;shadow=0;dashed=0;shape=mxgraph.bootstrap.rrect;rSize=5;strokeColor=#CED4DA;html=1;whiteSpace=wrap;fillColor=#FFFFFF;fontColor=#7D868C;align=left;spacing=15;spacingLeft=40;fontSize=14;" parent="1" vertex="1">
          <mxGeometry x="315" y="320" width="270" height="30" as="geometry" />
        </mxCell>
        <mxCell id="M6u84m0omHOoOw8vYrXv-58" value="" style="html=1;shadow=0;dashed=0;shape=mxgraph.bootstrap.leftButton;strokeColor=inherit;gradientColor=inherit;fontColor=inherit;fillColor=#E9ECEF;rSize=5;perimeter=none;whiteSpace=wrap;resizeHeight=1;fontSize=14;" parent="M6u84m0omHOoOw8vYrXv-57" vertex="1">
          <mxGeometry width="13.5" height="30" as="geometry" />
        </mxCell>
        <mxCell id="M6u84m0omHOoOw8vYrXv-59" value="" style="html=1;shadow=0;dashed=0;shape=mxgraph.bootstrap.radioButton2;labelPosition=right;verticalLabelPosition=middle;align=left;verticalAlign=middle;gradientColor=#DEDEDE;fillColor=#EDEDED;strokeColor=#A6A6A6;checked=0;spacing=5;checkedFill=#0085FC;checkedStroke=#ffffff;" parent="M6u84m0omHOoOw8vYrXv-58" vertex="1">
          <mxGeometry x="0.5" y="0.5" width="10" height="10" relative="1" as="geometry">
            <mxPoint x="-5" y="-5" as="offset" />
          </mxGeometry>
        </mxCell>
        <mxCell id="M6u84m0omHOoOw8vYrXv-60" value="Seçenek 2" style="html=1;shadow=0;dashed=0;shape=mxgraph.bootstrap.rrect;rSize=5;strokeColor=#CED4DA;html=1;whiteSpace=wrap;fillColor=#FFFFFF;fontColor=#7D868C;align=left;spacing=15;spacingLeft=40;fontSize=14;" parent="1" vertex="1">
          <mxGeometry x="315" y="350" width="270" height="30" as="geometry" />
        </mxCell>
        <mxCell id="M6u84m0omHOoOw8vYrXv-61" value="" style="html=1;shadow=0;dashed=0;shape=mxgraph.bootstrap.leftButton;strokeColor=inherit;gradientColor=inherit;fontColor=inherit;fillColor=#E9ECEF;rSize=5;perimeter=none;whiteSpace=wrap;resizeHeight=1;fontSize=14;" parent="M6u84m0omHOoOw8vYrXv-60" vertex="1">
          <mxGeometry width="13.5" height="30" as="geometry" />
        </mxCell>
        <mxCell id="M6u84m0omHOoOw8vYrXv-62" value="" style="html=1;shadow=0;dashed=0;shape=mxgraph.bootstrap.radioButton2;labelPosition=right;verticalLabelPosition=middle;align=left;verticalAlign=middle;gradientColor=#DEDEDE;fillColor=#EDEDED;strokeColor=#A6A6A6;checked=0;spacing=5;checkedFill=#0085FC;checkedStroke=#ffffff;" parent="M6u84m0omHOoOw8vYrXv-61" vertex="1">
          <mxGeometry x="0.5" y="0.5" width="10" height="10" relative="1" as="geometry">
            <mxPoint x="-5" y="-5" as="offset" />
          </mxGeometry>
        </mxCell>
        <mxCell id="M6u84m0omHOoOw8vYrXv-63" value="Seçenek 3" style="html=1;shadow=0;dashed=0;shape=mxgraph.bootstrap.rrect;rSize=5;strokeColor=#CED4DA;html=1;whiteSpace=wrap;fillColor=#FFFFFF;fontColor=#7D868C;align=left;spacing=15;spacingLeft=40;fontSize=14;" parent="1" vertex="1">
          <mxGeometry x="315" y="380" width="270" height="30" as="geometry" />
        </mxCell>
        <mxCell id="M6u84m0omHOoOw8vYrXv-64" value="" style="html=1;shadow=0;dashed=0;shape=mxgraph.bootstrap.leftButton;strokeColor=inherit;gradientColor=inherit;fontColor=inherit;fillColor=#E9ECEF;rSize=5;perimeter=none;whiteSpace=wrap;resizeHeight=1;fontSize=14;" parent="M6u84m0omHOoOw8vYrXv-63" vertex="1">
          <mxGeometry width="13.5" height="30" as="geometry" />
        </mxCell>
        <mxCell id="M6u84m0omHOoOw8vYrXv-65" value="" style="html=1;shadow=0;dashed=0;shape=mxgraph.bootstrap.radioButton2;labelPosition=right;verticalLabelPosition=middle;align=left;verticalAlign=middle;gradientColor=#DEDEDE;fillColor=#EDEDED;strokeColor=#A6A6A6;checked=0;spacing=5;checkedFill=#0085FC;checkedStroke=#ffffff;" parent="M6u84m0omHOoOw8vYrXv-64" vertex="1">
          <mxGeometry x="0.5" y="0.5" width="10" height="10" relative="1" as="geometry">
            <mxPoint x="-5" y="-5" as="offset" />
          </mxGeometry>
        </mxCell>
        <mxCell id="M6u84m0omHOoOw8vYrXv-66" value="" style="shape=image;html=1;verticalAlign=top;verticalLabelPosition=bottom;labelBackgroundColor=#ffffff;imageAspect=0;aspect=fixed;image=https://cdn4.iconfinder.com/data/icons/evil-icons-user-interface/64/plus-128.png" parent="1" vertex="1">
          <mxGeometry x="285" y="410" width="30" height="30" as="geometry" />
        </mxCell>
        <mxCell id="M6u84m0omHOoOw8vYrXv-71" value="" style="shape=image;html=1;verticalAlign=top;verticalLabelPosition=bottom;labelBackgroundColor=#ffffff;imageAspect=0;aspect=fixed;image=https://cdn4.iconfinder.com/data/icons/evil-icons-user-interface/64/minus-128.png" parent="1" vertex="1">
          <mxGeometry x="285" y="320" width="30" height="30" as="geometry" />
        </mxCell>
        <mxCell id="M6u84m0omHOoOw8vYrXv-72" value="" style="shape=image;html=1;verticalAlign=top;verticalLabelPosition=bottom;labelBackgroundColor=#ffffff;imageAspect=0;aspect=fixed;image=https://cdn4.iconfinder.com/data/icons/evil-icons-user-interface/64/minus-128.png" parent="1" vertex="1">
          <mxGeometry x="285" y="350" width="30" height="30" as="geometry" />
        </mxCell>
        <mxCell id="M6u84m0omHOoOw8vYrXv-73" value="" style="shape=image;html=1;verticalAlign=top;verticalLabelPosition=bottom;labelBackgroundColor=#ffffff;imageAspect=0;aspect=fixed;image=https://cdn4.iconfinder.com/data/icons/evil-icons-user-interface/64/minus-128.png" parent="1" vertex="1">
          <mxGeometry x="285" y="380" width="30" height="30" as="geometry" />
        </mxCell>
        <mxCell id="M6u84m0omHOoOw8vYrXv-74" value="Ekle" style="html=1;shadow=0;dashed=0;shape=mxgraph.bootstrap.rrect;rSize=5;strokeColor=#CED4DA;html=1;whiteSpace=wrap;fillColor=#FFFFFF;fontColor=#7D868C;align=left;spacing=15;spacingLeft=40;fontSize=14;" parent="1" vertex="1">
          <mxGeometry x="315" y="410" width="270" height="30" as="geometry" />
        </mxCell>
        <mxCell id="M6u84m0omHOoOw8vYrXv-75" value="" style="html=1;shadow=0;dashed=0;shape=mxgraph.bootstrap.leftButton;strokeColor=inherit;gradientColor=inherit;fontColor=inherit;fillColor=#E9ECEF;rSize=5;perimeter=none;whiteSpace=wrap;resizeHeight=1;fontSize=14;" parent="M6u84m0omHOoOw8vYrXv-74" vertex="1">
          <mxGeometry width="13.5" height="30" as="geometry" />
        </mxCell>
        <mxCell id="M6u84m0omHOoOw8vYrXv-76" value="" style="html=1;shadow=0;dashed=0;shape=mxgraph.bootstrap.radioButton2;labelPosition=right;verticalLabelPosition=middle;align=left;verticalAlign=middle;gradientColor=#DEDEDE;fillColor=#EDEDED;strokeColor=#A6A6A6;checked=0;spacing=5;checkedFill=#0085FC;checkedStroke=#ffffff;" parent="M6u84m0omHOoOw8vYrXv-75" vertex="1">
          <mxGeometry x="0.5" y="0.5" width="10" height="10" relative="1" as="geometry">
            <mxPoint x="-5" y="-5" as="offset" />
          </mxGeometry>
        </mxCell>
        <mxCell id="M6u84m0omHOoOw8vYrXv-77" value="" style="rounded=0;whiteSpace=wrap;html=1;" parent="1" vertex="1">
          <mxGeometry x="280" y="460" width="520" height="110" as="geometry" />
        </mxCell>
        <mxCell id="M6u84m0omHOoOw8vYrXv-78" value="2. Lorem ipsum dolor sit amet, consectetur adipiscing elit, sed do eiusmod tempor incididunt ut labore et dolore magna aliqua.&amp;nbsp;" style="text;html=1;strokeColor=none;fillColor=none;align=left;verticalAlign=middle;whiteSpace=wrap;rounded=0;" parent="1" vertex="1">
          <mxGeometry x="280" y="460" width="520" height="30" as="geometry" />
        </mxCell>
        <mxCell id="M6u84m0omHOoOw8vYrXv-79" value="" style="shape=image;html=1;verticalAlign=top;verticalLabelPosition=bottom;labelBackgroundColor=#ffffff;imageAspect=0;aspect=fixed;image=https://cdn4.iconfinder.com/data/icons/evil-icons-user-interface/64/plus-128.png" parent="1" vertex="1">
          <mxGeometry x="310" y="510" width="30" height="30" as="geometry" />
        </mxCell>
        <mxCell id="M6u84m0omHOoOw8vYrXv-80" value="" style="shape=image;html=1;verticalAlign=top;verticalLabelPosition=bottom;labelBackgroundColor=#ffffff;imageAspect=0;aspect=fixed;image=https://cdn4.iconfinder.com/data/icons/evil-icons-user-interface/64/minus-128.png" parent="1" vertex="1">
          <mxGeometry x="285" y="510" width="30" height="30" as="geometry" />
        </mxCell>
        <mxCell id="M6u84m0omHOoOw8vYrXv-83" value="" style="group" parent="1" vertex="1" connectable="0">
          <mxGeometry x="630" y="420" width="160" height="30" as="geometry" />
        </mxCell>
        <mxCell id="M6u84m0omHOoOw8vYrXv-81" value="Çoğalt" style="rounded=1;whiteSpace=wrap;html=1;" parent="M6u84m0omHOoOw8vYrXv-83" vertex="1">
          <mxGeometry width="80" height="30" as="geometry" />
        </mxCell>
        <mxCell id="M6u84m0omHOoOw8vYrXv-82" value="Sil" style="rounded=1;whiteSpace=wrap;html=1;" parent="M6u84m0omHOoOw8vYrXv-83" vertex="1">
          <mxGeometry x="80" width="80" height="30" as="geometry" />
        </mxCell>
        <mxCell id="M6u84m0omHOoOw8vYrXv-84" value="" style="group" parent="1" vertex="1" connectable="0">
          <mxGeometry x="630" y="530" width="160" height="30" as="geometry" />
        </mxCell>
        <mxCell id="M6u84m0omHOoOw8vYrXv-85" value="Çoğalt" style="rounded=1;whiteSpace=wrap;html=1;" parent="M6u84m0omHOoOw8vYrXv-84" vertex="1">
          <mxGeometry width="80" height="30" as="geometry" />
        </mxCell>
        <mxCell id="M6u84m0omHOoOw8vYrXv-86" value="Sil" style="rounded=1;whiteSpace=wrap;html=1;" parent="M6u84m0omHOoOw8vYrXv-84" vertex="1">
          <mxGeometry x="80" width="80" height="30" as="geometry" />
        </mxCell>
        <mxCell id="M6u84m0omHOoOw8vYrXv-87" value="3" style="ellipse;whiteSpace=wrap;html=1;aspect=fixed;" parent="1" vertex="1">
          <mxGeometry x="400" y="515" width="20" height="20" as="geometry" />
        </mxCell>
        <mxCell id="M6u84m0omHOoOw8vYrXv-88" value="1" style="ellipse;whiteSpace=wrap;html=1;aspect=fixed;" parent="1" vertex="1">
          <mxGeometry x="360" y="515" width="20" height="20" as="geometry" />
        </mxCell>
        <mxCell id="M6u84m0omHOoOw8vYrXv-89" value="2" style="ellipse;whiteSpace=wrap;html=1;aspect=fixed;" parent="1" vertex="1">
          <mxGeometry x="380" y="515" width="20" height="20" as="geometry" />
        </mxCell>
        <mxCell id="M6u84m0omHOoOw8vYrXv-90" value="4" style="ellipse;whiteSpace=wrap;html=1;aspect=fixed;" parent="1" vertex="1">
          <mxGeometry x="420" y="515" width="20" height="20" as="geometry" />
        </mxCell>
        <mxCell id="M6u84m0omHOoOw8vYrXv-91" value="5" style="ellipse;whiteSpace=wrap;html=1;aspect=fixed;" parent="1" vertex="1">
          <mxGeometry x="440" y="515" width="20" height="20" as="geometry" />
        </mxCell>
        <mxCell id="M6u84m0omHOoOw8vYrXv-92" value="" style="rounded=0;whiteSpace=wrap;html=1;" parent="1" vertex="1">
          <mxGeometry x="280" y="570" width="520" height="180" as="geometry" />
        </mxCell>
        <mxCell id="M6u84m0omHOoOw8vYrXv-93" value="3. Lorem ipsum dolor sit amet, consectetur adipiscing elit, sed do eiusmod tempor incididunt ut labore et dolore magna aliqua.&amp;nbsp;" style="text;html=1;strokeColor=none;fillColor=none;align=left;verticalAlign=middle;whiteSpace=wrap;rounded=0;" parent="1" vertex="1">
          <mxGeometry x="280" y="570" width="520" height="30" as="geometry" />
        </mxCell>
        <mxCell id="M6u84m0omHOoOw8vYrXv-94" value="" style="group" parent="1" vertex="1" connectable="0">
          <mxGeometry x="630" y="710" width="160" height="30" as="geometry" />
        </mxCell>
        <mxCell id="M6u84m0omHOoOw8vYrXv-95" value="Çoğalt" style="rounded=1;whiteSpace=wrap;html=1;" parent="M6u84m0omHOoOw8vYrXv-94" vertex="1">
          <mxGeometry width="80" height="30" as="geometry" />
        </mxCell>
        <mxCell id="M6u84m0omHOoOw8vYrXv-96" value="Sil" style="rounded=1;whiteSpace=wrap;html=1;" parent="M6u84m0omHOoOw8vYrXv-94" vertex="1">
          <mxGeometry x="80" width="80" height="30" as="geometry" />
        </mxCell>
        <mxCell id="M6u84m0omHOoOw8vYrXv-97" value="Seçenek 1" style="html=1;shadow=0;dashed=0;shape=mxgraph.bootstrap.rrect;rSize=5;strokeColor=#CED4DA;html=1;whiteSpace=wrap;fillColor=#FFFFFF;fontColor=#7D868C;align=left;spacing=15;spacingLeft=40;fontSize=14;" parent="1" vertex="1">
          <mxGeometry x="315" y="620" width="275" height="30" as="geometry" />
        </mxCell>
        <mxCell id="M6u84m0omHOoOw8vYrXv-98" value="" style="html=1;shadow=0;dashed=0;shape=mxgraph.bootstrap.leftButton;strokeColor=inherit;gradientColor=inherit;fontColor=inherit;fillColor=#E9ECEF;rSize=5;perimeter=none;whiteSpace=wrap;resizeHeight=1;fontSize=14;" parent="M6u84m0omHOoOw8vYrXv-97" vertex="1">
          <mxGeometry width="13.75" height="30" as="geometry" />
        </mxCell>
        <mxCell id="M6u84m0omHOoOw8vYrXv-99" value="" style="html=1;shadow=0;dashed=0;shape=mxgraph.bootstrap.checkbox2;labelPosition=right;verticalLabelPosition=middle;align=left;verticalAlign=middle;gradientColor=#DEDEDE;fillColor=#EDEDED;strokeColor=#A6A6A6;checked=0;spacing=5;checkedFill=#0085FC;checkedStroke=#ffffff;" parent="M6u84m0omHOoOw8vYrXv-98" vertex="1">
          <mxGeometry x="0.5" y="0.5" width="10" height="10" relative="1" as="geometry">
            <mxPoint x="-5" y="-5" as="offset" />
          </mxGeometry>
        </mxCell>
        <mxCell id="M6u84m0omHOoOw8vYrXv-100" value="" style="shape=image;html=1;verticalAlign=top;verticalLabelPosition=bottom;labelBackgroundColor=#ffffff;imageAspect=0;aspect=fixed;image=https://cdn4.iconfinder.com/data/icons/evil-icons-user-interface/64/plus-128.png" parent="1" vertex="1">
          <mxGeometry x="285" y="710" width="30" height="30" as="geometry" />
        </mxCell>
        <mxCell id="M6u84m0omHOoOw8vYrXv-101" value="" style="shape=image;html=1;verticalAlign=top;verticalLabelPosition=bottom;labelBackgroundColor=#ffffff;imageAspect=0;aspect=fixed;image=https://cdn4.iconfinder.com/data/icons/evil-icons-user-interface/64/minus-128.png" parent="1" vertex="1">
          <mxGeometry x="285" y="620" width="30" height="30" as="geometry" />
        </mxCell>
        <mxCell id="M6u84m0omHOoOw8vYrXv-102" value="" style="shape=image;html=1;verticalAlign=top;verticalLabelPosition=bottom;labelBackgroundColor=#ffffff;imageAspect=0;aspect=fixed;image=https://cdn4.iconfinder.com/data/icons/evil-icons-user-interface/64/minus-128.png" parent="1" vertex="1">
          <mxGeometry x="285" y="650" width="30" height="30" as="geometry" />
        </mxCell>
        <mxCell id="M6u84m0omHOoOw8vYrXv-103" value="" style="shape=image;html=1;verticalAlign=top;verticalLabelPosition=bottom;labelBackgroundColor=#ffffff;imageAspect=0;aspect=fixed;image=https://cdn4.iconfinder.com/data/icons/evil-icons-user-interface/64/minus-128.png" parent="1" vertex="1">
          <mxGeometry x="285" y="680" width="30" height="30" as="geometry" />
        </mxCell>
        <mxCell id="M6u84m0omHOoOw8vYrXv-104" value="Seçenek 2" style="html=1;shadow=0;dashed=0;shape=mxgraph.bootstrap.rrect;rSize=5;strokeColor=#CED4DA;html=1;whiteSpace=wrap;fillColor=#FFFFFF;fontColor=#7D868C;align=left;spacing=15;spacingLeft=40;fontSize=14;" parent="1" vertex="1">
          <mxGeometry x="315" y="650" width="275" height="30" as="geometry" />
        </mxCell>
        <mxCell id="M6u84m0omHOoOw8vYrXv-105" value="" style="html=1;shadow=0;dashed=0;shape=mxgraph.bootstrap.leftButton;strokeColor=inherit;gradientColor=inherit;fontColor=inherit;fillColor=#E9ECEF;rSize=5;perimeter=none;whiteSpace=wrap;resizeHeight=1;fontSize=14;" parent="M6u84m0omHOoOw8vYrXv-104" vertex="1">
          <mxGeometry width="13.75" height="30" as="geometry" />
        </mxCell>
        <mxCell id="M6u84m0omHOoOw8vYrXv-106" value="" style="html=1;shadow=0;dashed=0;shape=mxgraph.bootstrap.checkbox2;labelPosition=right;verticalLabelPosition=middle;align=left;verticalAlign=middle;gradientColor=#DEDEDE;fillColor=#EDEDED;strokeColor=#A6A6A6;checked=0;spacing=5;checkedFill=#0085FC;checkedStroke=#ffffff;" parent="M6u84m0omHOoOw8vYrXv-105" vertex="1">
          <mxGeometry x="0.5" y="0.5" width="10" height="10" relative="1" as="geometry">
            <mxPoint x="-5" y="-5" as="offset" />
          </mxGeometry>
        </mxCell>
        <mxCell id="M6u84m0omHOoOw8vYrXv-107" value="Seçenek 3" style="html=1;shadow=0;dashed=0;shape=mxgraph.bootstrap.rrect;rSize=5;strokeColor=#CED4DA;html=1;whiteSpace=wrap;fillColor=#FFFFFF;fontColor=#7D868C;align=left;spacing=15;spacingLeft=40;fontSize=14;" parent="1" vertex="1">
          <mxGeometry x="315" y="680" width="275" height="30" as="geometry" />
        </mxCell>
        <mxCell id="M6u84m0omHOoOw8vYrXv-108" value="" style="html=1;shadow=0;dashed=0;shape=mxgraph.bootstrap.leftButton;strokeColor=inherit;gradientColor=inherit;fontColor=inherit;fillColor=#E9ECEF;rSize=5;perimeter=none;whiteSpace=wrap;resizeHeight=1;fontSize=14;" parent="M6u84m0omHOoOw8vYrXv-107" vertex="1">
          <mxGeometry width="13.75" height="30" as="geometry" />
        </mxCell>
        <mxCell id="M6u84m0omHOoOw8vYrXv-109" value="" style="html=1;shadow=0;dashed=0;shape=mxgraph.bootstrap.checkbox2;labelPosition=right;verticalLabelPosition=middle;align=left;verticalAlign=middle;gradientColor=#DEDEDE;fillColor=#EDEDED;strokeColor=#A6A6A6;checked=0;spacing=5;checkedFill=#0085FC;checkedStroke=#ffffff;" parent="M6u84m0omHOoOw8vYrXv-108" vertex="1">
          <mxGeometry x="0.5" y="0.5" width="10" height="10" relative="1" as="geometry">
            <mxPoint x="-5" y="-5" as="offset" />
          </mxGeometry>
        </mxCell>
        <mxCell id="M6u84m0omHOoOw8vYrXv-110" value="Ekle" style="html=1;shadow=0;dashed=0;shape=mxgraph.bootstrap.rrect;rSize=5;strokeColor=#CED4DA;html=1;whiteSpace=wrap;fillColor=#FFFFFF;fontColor=#7D868C;align=left;spacing=15;spacingLeft=40;fontSize=14;" parent="1" vertex="1">
          <mxGeometry x="315" y="710" width="275" height="30" as="geometry" />
        </mxCell>
        <mxCell id="M6u84m0omHOoOw8vYrXv-111" value="" style="html=1;shadow=0;dashed=0;shape=mxgraph.bootstrap.leftButton;strokeColor=inherit;gradientColor=inherit;fontColor=inherit;fillColor=#E9ECEF;rSize=5;perimeter=none;whiteSpace=wrap;resizeHeight=1;fontSize=14;" parent="M6u84m0omHOoOw8vYrXv-110" vertex="1">
          <mxGeometry width="13.75" height="30" as="geometry" />
        </mxCell>
        <mxCell id="M6u84m0omHOoOw8vYrXv-112" value="" style="html=1;shadow=0;dashed=0;shape=mxgraph.bootstrap.checkbox2;labelPosition=right;verticalLabelPosition=middle;align=left;verticalAlign=middle;gradientColor=#DEDEDE;fillColor=#EDEDED;strokeColor=#A6A6A6;checked=0;spacing=5;checkedFill=#0085FC;checkedStroke=#ffffff;" parent="M6u84m0omHOoOw8vYrXv-111" vertex="1">
          <mxGeometry x="0.5" y="0.5" width="10" height="10" relative="1" as="geometry">
            <mxPoint x="-5" y="-5" as="offset" />
          </mxGeometry>
        </mxCell>
        <mxCell id="M6u84m0omHOoOw8vYrXv-113" value="Şablon Açıklaması" style="text;html=1;strokeColor=none;fillColor=none;align=left;verticalAlign=middle;whiteSpace=wrap;rounded=0;" parent="1" vertex="1">
          <mxGeometry x="240" y="140" width="110" height="40" as="geometry" />
        </mxCell>
        <mxCell id="M6u84m0omHOoOw8vYrXv-114" value="" style="rounded=0;whiteSpace=wrap;html=1;" parent="1" vertex="1">
          <mxGeometry x="280" y="750" width="520" height="130" as="geometry" />
        </mxCell>
        <mxCell id="M6u84m0omHOoOw8vYrXv-115" value="4. Lorem ipsum dolor sit amet, consectetur adipiscing elit, sed do eiusmod tempor incididunt ut labore et dolore magna aliqua.&amp;nbsp;" style="text;html=1;strokeColor=none;fillColor=none;align=left;verticalAlign=middle;whiteSpace=wrap;rounded=0;" parent="1" vertex="1">
          <mxGeometry x="280" y="750" width="520" height="30" as="geometry" />
        </mxCell>
        <mxCell id="M6u84m0omHOoOw8vYrXv-116" value="" style="group" parent="1" vertex="1" connectable="0">
          <mxGeometry x="630" y="840" width="160" height="30" as="geometry" />
        </mxCell>
        <mxCell id="M6u84m0omHOoOw8vYrXv-117" value="Çoğalt" style="rounded=1;whiteSpace=wrap;html=1;" parent="M6u84m0omHOoOw8vYrXv-116" vertex="1">
          <mxGeometry width="80" height="30" as="geometry" />
        </mxCell>
        <mxCell id="M6u84m0omHOoOw8vYrXv-118" value="Sil" style="rounded=1;whiteSpace=wrap;html=1;" parent="M6u84m0omHOoOw8vYrXv-116" vertex="1">
          <mxGeometry x="80" width="80" height="30" as="geometry" />
        </mxCell>
        <mxCell id="M6u84m0omHOoOw8vYrXv-119" value="Uygun" style="rounded=1;whiteSpace=wrap;html=1;fillColor=#d5e8d4;strokeColor=#82b366;" parent="1" vertex="1">
          <mxGeometry x="315" y="797" width="70" height="30" as="geometry" />
        </mxCell>
        <mxCell id="M6u84m0omHOoOw8vYrXv-120" value="Uygun Değil" style="rounded=1;whiteSpace=wrap;html=1;fillColor=#f8cecc;strokeColor=#b85450;" parent="1" vertex="1">
          <mxGeometry x="385" y="797" width="70" height="30" as="geometry" />
        </mxCell>
        <mxCell id="M6u84m0omHOoOw8vYrXv-121" value="" style="rounded=0;whiteSpace=wrap;html=1;" parent="1" vertex="1">
          <mxGeometry x="280" y="880" width="520" height="130" as="geometry" />
        </mxCell>
        <mxCell id="M6u84m0omHOoOw8vYrXv-122" value="5. Lorem ipsum dolor sit amet, consectetur adipiscing elit, sed do eiusmod tempor incididunt ut labore et dolore magna aliqua.&amp;nbsp;" style="text;html=1;strokeColor=none;fillColor=none;align=left;verticalAlign=middle;whiteSpace=wrap;rounded=0;" parent="1" vertex="1">
          <mxGeometry x="280" y="880" width="520" height="30" as="geometry" />
        </mxCell>
        <mxCell id="M6u84m0omHOoOw8vYrXv-123" value="" style="group" parent="1" vertex="1" connectable="0">
          <mxGeometry x="630" y="970" width="160" height="30" as="geometry" />
        </mxCell>
        <mxCell id="M6u84m0omHOoOw8vYrXv-124" value="Çoğalt" style="rounded=1;whiteSpace=wrap;html=1;" parent="M6u84m0omHOoOw8vYrXv-123" vertex="1">
          <mxGeometry width="80" height="30" as="geometry" />
        </mxCell>
        <mxCell id="M6u84m0omHOoOw8vYrXv-125" value="Sil" style="rounded=1;whiteSpace=wrap;html=1;" parent="M6u84m0omHOoOw8vYrXv-123" vertex="1">
          <mxGeometry x="80" width="80" height="30" as="geometry" />
        </mxCell>
        <mxCell id="M6u84m0omHOoOw8vYrXv-126" value="Uygun" style="rounded=1;whiteSpace=wrap;html=1;fillColor=#d5e8d4;strokeColor=#82b366;" parent="1" vertex="1">
          <mxGeometry x="315" y="930" width="70" height="30" as="geometry" />
        </mxCell>
        <mxCell id="M6u84m0omHOoOw8vYrXv-127" value="Uygun Değil" style="rounded=1;whiteSpace=wrap;html=1;fillColor=#f8cecc;strokeColor=#b85450;" parent="1" vertex="1">
          <mxGeometry x="455" y="930" width="70" height="30" as="geometry" />
        </mxCell>
        <mxCell id="M6u84m0omHOoOw8vYrXv-128" value="Kısmen Uygun" style="rounded=1;whiteSpace=wrap;html=1;fillColor=#ffe6cc;strokeColor=#d79b00;" parent="1" vertex="1">
          <mxGeometry x="385" y="930" width="70" height="30" as="geometry" />
        </mxCell>
        <mxCell id="M6u84m0omHOoOw8vYrXv-130" value="Uygun Puanı" style="rounded=1;whiteSpace=wrap;html=1;dashed=1;" parent="1" vertex="1">
          <mxGeometry x="315" y="827" width="70" height="30" as="geometry" />
        </mxCell>
        <mxCell id="M6u84m0omHOoOw8vYrXv-131" value="Uygun Değil Puanı" style="rounded=1;whiteSpace=wrap;html=1;dashed=1;" parent="1" vertex="1">
          <mxGeometry x="385" y="827" width="70" height="30" as="geometry" />
        </mxCell>
        <mxCell id="M6u84m0omHOoOw8vYrXv-132" value="Uygun Puanı" style="rounded=1;whiteSpace=wrap;html=1;dashed=1;" parent="1" vertex="1">
          <mxGeometry x="315" y="960" width="70" height="30" as="geometry" />
        </mxCell>
        <mxCell id="M6u84m0omHOoOw8vYrXv-133" value="Uygun Değil Puanı" style="rounded=1;whiteSpace=wrap;html=1;dashed=1;" parent="1" vertex="1">
          <mxGeometry x="455" y="960" width="70" height="30" as="geometry" />
        </mxCell>
        <mxCell id="M6u84m0omHOoOw8vYrXv-134" value="Kısmen Uygun Puanı" style="rounded=1;whiteSpace=wrap;html=1;dashed=1;fontSize=11;" parent="1" vertex="1">
          <mxGeometry x="385" y="960" width="70" height="30" as="geometry" />
        </mxCell>
        <mxCell id="M6u84m0omHOoOw8vYrXv-135" value="" style="rounded=0;whiteSpace=wrap;html=1;" parent="1" vertex="1">
          <mxGeometry x="280" y="1010" width="520" height="100" as="geometry" />
        </mxCell>
        <mxCell id="M6u84m0omHOoOw8vYrXv-136" value="6. Lorem ipsum dolor sit amet, consectetur adipiscing elit, sed do eiusmod tempor incididunt ut labore et dolore magna aliqua.&amp;nbsp;" style="text;html=1;strokeColor=none;fillColor=none;align=left;verticalAlign=middle;whiteSpace=wrap;rounded=0;" parent="1" vertex="1">
          <mxGeometry x="280" y="1010" width="520" height="30" as="geometry" />
        </mxCell>
        <mxCell id="M6u84m0omHOoOw8vYrXv-137" value="" style="group" parent="1" vertex="1" connectable="0">
          <mxGeometry x="630" y="1070" width="160" height="30" as="geometry" />
        </mxCell>
        <mxCell id="M6u84m0omHOoOw8vYrXv-138" value="Çoğalt" style="rounded=1;whiteSpace=wrap;html=1;" parent="M6u84m0omHOoOw8vYrXv-137" vertex="1">
          <mxGeometry width="80" height="30" as="geometry" />
        </mxCell>
        <mxCell id="M6u84m0omHOoOw8vYrXv-139" value="Sil" style="rounded=1;whiteSpace=wrap;html=1;" parent="M6u84m0omHOoOw8vYrXv-137" vertex="1">
          <mxGeometry x="80" width="80" height="30" as="geometry" />
        </mxCell>
        <mxCell id="M6u84m0omHOoOw8vYrXv-140" value="" style="sketch=0;pointerEvents=1;shadow=0;dashed=0;html=1;strokeColor=#6c8ebf;fillColor=#dae8fc;labelPosition=center;verticalLabelPosition=bottom;verticalAlign=top;outlineConnect=0;align=center;shape=mxgraph.office.concepts.folder_open;strokeWidth=2;" parent="1" vertex="1">
          <mxGeometry x="320" y="1062" width="50" height="30" as="geometry" />
        </mxCell>
        <mxCell id="M6u84m0omHOoOw8vYrXv-142" value="" style="html=1;verticalLabelPosition=bottom;align=center;labelBackgroundColor=#ffffff;verticalAlign=top;strokeWidth=2;strokeColor=#6c8ebf;shadow=0;dashed=0;shape=mxgraph.ios7.icons.camera;fillColor=#dae8fc;" parent="1" vertex="1">
          <mxGeometry x="380" y="1058.3" width="50" height="33.7" as="geometry" />
        </mxCell>
        <mxCell id="M6u84m0omHOoOw8vYrXv-143" value="" style="rounded=0;whiteSpace=wrap;html=1;" parent="1" vertex="1">
          <mxGeometry x="280" y="1110" width="520" height="170" as="geometry" />
        </mxCell>
        <mxCell id="M6u84m0omHOoOw8vYrXv-144" value="7. Lorem ipsum dolor sit amet, consectetur adipiscing elit, sed do eiusmod tempor incididunt ut labore et dolore magna aliqua.&amp;nbsp;" style="text;html=1;strokeColor=none;fillColor=none;align=left;verticalAlign=middle;whiteSpace=wrap;rounded=0;" parent="1" vertex="1">
          <mxGeometry x="280" y="1110" width="520" height="30" as="geometry" />
        </mxCell>
        <mxCell id="M6u84m0omHOoOw8vYrXv-145" value="" style="group" parent="1" vertex="1" connectable="0">
          <mxGeometry x="630" y="1240.5" width="160" height="30" as="geometry" />
        </mxCell>
        <mxCell id="M6u84m0omHOoOw8vYrXv-146" value="Çoğalt" style="rounded=1;whiteSpace=wrap;html=1;" parent="M6u84m0omHOoOw8vYrXv-145" vertex="1">
          <mxGeometry width="80" height="30" as="geometry" />
        </mxCell>
        <mxCell id="M6u84m0omHOoOw8vYrXv-147" value="Sil" style="rounded=1;whiteSpace=wrap;html=1;" parent="M6u84m0omHOoOw8vYrXv-145" vertex="1">
          <mxGeometry x="80" width="80" height="30" as="geometry" />
        </mxCell>
        <mxCell id="M6u84m0omHOoOw8vYrXv-148" value="" style="rounded=0;whiteSpace=wrap;html=1;shadow=1;fillColor=#f5f5f5;fontColor=#333333;strokeColor=#666666;" parent="1" vertex="1">
          <mxGeometry x="315" y="1160" width="465" height="60" as="geometry" />
        </mxCell>
        <mxCell id="M6u84m0omHOoOw8vYrXv-199" value="" style="group" parent="1" vertex="1" connectable="0">
          <mxGeometry x="280" y="1290" width="520" height="60" as="geometry" />
        </mxCell>
        <mxCell id="OTNIbcTi5ZiTMBxZJam7-4" value="" style="group" parent="M6u84m0omHOoOw8vYrXv-199" vertex="1" connectable="0">
          <mxGeometry width="520" height="60" as="geometry" />
        </mxCell>
        <mxCell id="M6u84m0omHOoOw8vYrXv-197" value="Yeni Soru Ekle" style="rounded=1;whiteSpace=wrap;html=1;" parent="OTNIbcTi5ZiTMBxZJam7-4" vertex="1">
          <mxGeometry width="520" height="60" as="geometry" />
        </mxCell>
        <mxCell id="M6u84m0omHOoOw8vYrXv-198" value="..." style="text;html=1;align=center;verticalAlign=middle;resizable=0;points=[];autosize=1;strokeColor=none;fillColor=none;fontStyle=1;fontSize=24;" parent="OTNIbcTi5ZiTMBxZJam7-4" vertex="1">
          <mxGeometry x="470" y="5" width="40" height="40" as="geometry" />
        </mxCell>
        <mxCell id="M6u84m0omHOoOw8vYrXv-200" value="" style="rounded=0;whiteSpace=wrap;html=1;shadow=0;perimeter=ellipsePerimeter;movable=0;resizable=0;rotatable=0;deletable=0;editable=0;locked=1;connectable=0;strokeWidth=4;fillColor=#dee9f7;strokeColor=#6c8ebf;" parent="1" vertex="1">
          <mxGeometry x="240" y="1400" width="600" height="150" as="geometry" />
        </mxCell>
        <mxCell id="M6u84m0omHOoOw8vYrXv-201" value="Soru Grubu Açıklaması" style="text;html=1;strokeColor=none;fillColor=none;align=left;verticalAlign=middle;whiteSpace=wrap;rounded=0;" parent="1" vertex="1">
          <mxGeometry x="240" y="1420" width="135" height="40" as="geometry" />
        </mxCell>
        <mxCell id="M6u84m0omHOoOw8vYrXv-202" value="Grup Adı2" style="text;html=1;strokeColor=none;fillColor=none;align=left;verticalAlign=middle;whiteSpace=wrap;rounded=0;fontStyle=1;fontSize=14;" parent="1" vertex="1">
          <mxGeometry x="240" y="1410" width="80" height="30" as="geometry" />
        </mxCell>
        <mxCell id="M6u84m0omHOoOw8vYrXv-203" value="" style="group" parent="1" vertex="1" connectable="0">
          <mxGeometry x="280" y="1460" width="520" height="60" as="geometry" />
        </mxCell>
        <mxCell id="M6u84m0omHOoOw8vYrXv-204" value="Yeni Soru Ekle" style="rounded=1;whiteSpace=wrap;html=1;" parent="M6u84m0omHOoOw8vYrXv-203" vertex="1">
          <mxGeometry width="520" height="60" as="geometry" />
        </mxCell>
        <mxCell id="M6u84m0omHOoOw8vYrXv-205" value="..." style="text;html=1;align=center;verticalAlign=middle;resizable=0;points=[];autosize=1;strokeColor=none;fillColor=none;fontStyle=1;fontSize=24;" parent="M6u84m0omHOoOw8vYrXv-203" vertex="1">
          <mxGeometry x="470" y="5" width="40" height="40" as="geometry" />
        </mxCell>
        <mxCell id="M6u84m0omHOoOw8vYrXv-206" value="" style="endArrow=none;html=1;rounded=0;movable=0;resizable=0;rotatable=0;deletable=0;editable=0;locked=1;connectable=0;" parent="1" edge="1">
          <mxGeometry width="50" height="50" relative="1" as="geometry">
            <mxPoint x="200" y="2480" as="sourcePoint" />
            <mxPoint x="880" y="2480" as="targetPoint" />
          </mxGeometry>
        </mxCell>
        <mxCell id="M6u84m0omHOoOw8vYrXv-207" value="" style="sketch=0;outlineConnect=0;fillColor=#b1ddf0;strokeColor=#10739e;dashed=0;verticalLabelPosition=bottom;verticalAlign=top;align=center;html=1;fontSize=12;fontStyle=0;aspect=fixed;pointerEvents=1;shape=mxgraph.aws4.container_registry_image;" parent="1" vertex="1">
          <mxGeometry x="792" y="130" width="48" height="48" as="geometry" />
        </mxCell>
        <mxCell id="OTNIbcTi5ZiTMBxZJam7-6" value="" style="rounded=1;whiteSpace=wrap;html=1;fillColor=#f5f5f5;strokeColor=#666666;fontColor=#333333;" parent="1" vertex="1">
          <mxGeometry x="920" y="160" width="240" height="80" as="geometry" />
        </mxCell>
        <mxCell id="OTNIbcTi5ZiTMBxZJam7-1" value="Genel Özellikler Şablon" style="rounded=0;whiteSpace=wrap;html=1;strokeWidth=2;" parent="1" vertex="1">
          <mxGeometry x="920" y="120" width="240" height="40" as="geometry" />
        </mxCell>
        <mxCell id="OTNIbcTi5ZiTMBxZJam7-7" value="" style="rounded=1;whiteSpace=wrap;html=1;fillColor=#f5f5f5;strokeColor=#666666;fontColor=#333333;" parent="1" vertex="1">
          <mxGeometry x="920" y="280" width="240" height="80" as="geometry" />
        </mxCell>
        <mxCell id="OTNIbcTi5ZiTMBxZJam7-8" value="Genel Özellikler Grup1" style="rounded=0;whiteSpace=wrap;html=1;strokeWidth=2;" parent="1" vertex="1">
          <mxGeometry x="920" y="240" width="240" height="40" as="geometry" />
        </mxCell>
        <mxCell id="OTNIbcTi5ZiTMBxZJam7-9" value="" style="rounded=1;whiteSpace=wrap;html=1;fillColor=#f5f5f5;fontColor=#333333;strokeColor=#666666;" parent="1" vertex="1">
          <mxGeometry x="920" y="400" width="240" height="150" as="geometry" />
        </mxCell>
        <mxCell id="OTNIbcTi5ZiTMBxZJam7-10" value="Etiket Grup2" style="rounded=0;whiteSpace=wrap;html=1;strokeWidth=2;" parent="1" vertex="1">
          <mxGeometry x="920" y="360" width="240" height="40" as="geometry" />
        </mxCell>
        <mxCell id="OTNIbcTi5ZiTMBxZJam7-11" value="" style="rounded=1;whiteSpace=wrap;html=1;fillColor=#f5f5f5;fontColor=#333333;strokeColor=#666666;" parent="1" vertex="1">
          <mxGeometry x="920" y="590" width="240" height="80" as="geometry" />
        </mxCell>
        <mxCell id="OTNIbcTi5ZiTMBxZJam7-12" value="Genel Özellikler Soru1" style="rounded=0;whiteSpace=wrap;html=1;strokeWidth=2;" parent="1" vertex="1">
          <mxGeometry x="920" y="550" width="240" height="40" as="geometry" />
        </mxCell>
        <mxCell id="OTNIbcTi5ZiTMBxZJam7-21" value="" style="rounded=1;whiteSpace=wrap;html=1;fillColor=#f5f5f5;fontColor=#333333;strokeColor=#666666;arcSize=8;" parent="1" vertex="1">
          <mxGeometry x="920" y="710" width="240" height="170" as="geometry" />
        </mxCell>
        <mxCell id="OTNIbcTi5ZiTMBxZJam7-22" value="Genel Özellikler Soru2" style="rounded=0;whiteSpace=wrap;html=1;strokeWidth=2;" parent="1" vertex="1">
          <mxGeometry x="920" y="670" width="240" height="40" as="geometry" />
        </mxCell>
        <mxCell id="OTNIbcTi5ZiTMBxZJam7-23" value="Performans Etkisi?" style="html=1;shadow=0;dashed=0;shape=mxgraph.bootstrap.rrect;rSize=5;strokeColor=#CED4DA;html=1;whiteSpace=wrap;fillColor=#FFFFFF;fontColor=#7D868C;align=left;spacing=15;spacingLeft=40;fontSize=14;" parent="1" vertex="1">
          <mxGeometry x="930" y="735" width="220" height="20" as="geometry" />
        </mxCell>
        <mxCell id="OTNIbcTi5ZiTMBxZJam7-24" value="" style="html=1;shadow=0;dashed=0;shape=mxgraph.bootstrap.leftButton;strokeColor=inherit;gradientColor=inherit;fontColor=inherit;fillColor=#E9ECEF;rSize=5;perimeter=none;whiteSpace=wrap;resizeHeight=1;fontSize=14;" parent="OTNIbcTi5ZiTMBxZJam7-23" vertex="1">
          <mxGeometry width="11" height="20" as="geometry" />
        </mxCell>
        <mxCell id="OTNIbcTi5ZiTMBxZJam7-25" value="" style="html=1;shadow=0;dashed=0;shape=mxgraph.bootstrap.checkbox2;labelPosition=right;verticalLabelPosition=middle;align=left;verticalAlign=middle;gradientColor=#DEDEDE;fillColor=#EDEDED;strokeColor=#A6A6A6;checked=0;spacing=5;checkedFill=#0085FC;checkedStroke=#ffffff;" parent="OTNIbcTi5ZiTMBxZJam7-24" vertex="1">
          <mxGeometry x="0.5" y="0.5" width="10" height="10" relative="1" as="geometry">
            <mxPoint x="-5" y="-5" as="offset" />
          </mxGeometry>
        </mxCell>
        <mxCell id="OTNIbcTi5ZiTMBxZJam7-26" value="Zorunlu?" style="html=1;shadow=0;dashed=0;shape=mxgraph.bootstrap.rrect;rSize=5;strokeColor=#CED4DA;html=1;whiteSpace=wrap;fillColor=#FFFFFF;fontColor=#7D868C;align=left;spacing=15;spacingLeft=40;fontSize=14;" parent="1" vertex="1">
          <mxGeometry x="930" y="755" width="220" height="20" as="geometry" />
        </mxCell>
        <mxCell id="OTNIbcTi5ZiTMBxZJam7-27" value="" style="html=1;shadow=0;dashed=0;shape=mxgraph.bootstrap.leftButton;strokeColor=inherit;gradientColor=inherit;fontColor=inherit;fillColor=#E9ECEF;rSize=5;perimeter=none;whiteSpace=wrap;resizeHeight=1;fontSize=14;" parent="OTNIbcTi5ZiTMBxZJam7-26" vertex="1">
          <mxGeometry width="11" height="20" as="geometry" />
        </mxCell>
        <mxCell id="OTNIbcTi5ZiTMBxZJam7-28" value="" style="html=1;shadow=0;dashed=0;shape=mxgraph.bootstrap.checkbox2;labelPosition=right;verticalLabelPosition=middle;align=left;verticalAlign=middle;gradientColor=#DEDEDE;fillColor=#EDEDED;strokeColor=#A6A6A6;checked=0;spacing=5;checkedFill=#0085FC;checkedStroke=#ffffff;" parent="OTNIbcTi5ZiTMBxZJam7-27" vertex="1">
          <mxGeometry x="0.5" y="0.5" width="10" height="10" relative="1" as="geometry">
            <mxPoint x="-5" y="-5" as="offset" />
          </mxGeometry>
        </mxCell>
        <mxCell id="OTNIbcTi5ZiTMBxZJam7-29" value="Denetim Dışı?" style="html=1;shadow=0;dashed=0;shape=mxgraph.bootstrap.rrect;rSize=5;strokeColor=#CED4DA;html=1;whiteSpace=wrap;fillColor=#FFFFFF;fontColor=#7D868C;align=left;spacing=15;spacingLeft=40;fontSize=14;" parent="1" vertex="1">
          <mxGeometry x="930" y="775" width="220" height="20" as="geometry" />
        </mxCell>
        <mxCell id="OTNIbcTi5ZiTMBxZJam7-30" value="" style="html=1;shadow=0;dashed=0;shape=mxgraph.bootstrap.leftButton;strokeColor=inherit;gradientColor=inherit;fontColor=inherit;fillColor=#E9ECEF;rSize=5;perimeter=none;whiteSpace=wrap;resizeHeight=1;fontSize=14;" parent="OTNIbcTi5ZiTMBxZJam7-29" vertex="1">
          <mxGeometry width="11" height="20" as="geometry" />
        </mxCell>
        <mxCell id="OTNIbcTi5ZiTMBxZJam7-31" value="" style="html=1;shadow=0;dashed=0;shape=mxgraph.bootstrap.checkbox2;labelPosition=right;verticalLabelPosition=middle;align=left;verticalAlign=middle;gradientColor=#DEDEDE;fillColor=#EDEDED;strokeColor=#A6A6A6;checked=0;spacing=5;checkedFill=#0085FC;checkedStroke=#ffffff;" parent="OTNIbcTi5ZiTMBxZJam7-30" vertex="1">
          <mxGeometry x="0.5" y="0.5" width="10" height="10" relative="1" as="geometry">
            <mxPoint x="-5" y="-5" as="offset" />
          </mxGeometry>
        </mxCell>
        <mxCell id="OTNIbcTi5ZiTMBxZJam7-35" value="Kritik?" style="html=1;shadow=0;dashed=0;shape=mxgraph.bootstrap.rrect;rSize=5;strokeColor=#CED4DA;html=1;whiteSpace=wrap;fillColor=#FFFFFF;fontColor=#7D868C;align=left;spacing=15;spacingLeft=40;fontSize=14;" parent="1" vertex="1">
          <mxGeometry x="930" y="795" width="220" height="20" as="geometry" />
        </mxCell>
        <mxCell id="OTNIbcTi5ZiTMBxZJam7-36" value="" style="html=1;shadow=0;dashed=0;shape=mxgraph.bootstrap.leftButton;strokeColor=inherit;gradientColor=inherit;fontColor=inherit;fillColor=#E9ECEF;rSize=5;perimeter=none;whiteSpace=wrap;resizeHeight=1;fontSize=14;" parent="OTNIbcTi5ZiTMBxZJam7-35" vertex="1">
          <mxGeometry width="11" height="20" as="geometry" />
        </mxCell>
        <mxCell id="OTNIbcTi5ZiTMBxZJam7-37" value="" style="html=1;shadow=0;dashed=0;shape=mxgraph.bootstrap.checkbox2;labelPosition=right;verticalLabelPosition=middle;align=left;verticalAlign=middle;gradientColor=#DEDEDE;fillColor=#EDEDED;strokeColor=#A6A6A6;checked=0;spacing=5;checkedFill=#0085FC;checkedStroke=#ffffff;" parent="OTNIbcTi5ZiTMBxZJam7-36" vertex="1">
          <mxGeometry x="0.5" y="0.5" width="10" height="10" relative="1" as="geometry">
            <mxPoint x="-5" y="-5" as="offset" />
          </mxGeometry>
        </mxCell>
        <mxCell id="OTNIbcTi5ZiTMBxZJam7-38" value="Nakavt?" style="html=1;shadow=0;dashed=0;shape=mxgraph.bootstrap.rrect;rSize=5;strokeColor=#CED4DA;html=1;whiteSpace=wrap;fillColor=#FFFFFF;fontColor=#7D868C;align=left;spacing=15;spacingLeft=40;fontSize=14;" parent="1" vertex="1">
          <mxGeometry x="930" y="815" width="220" height="20" as="geometry" />
        </mxCell>
        <mxCell id="OTNIbcTi5ZiTMBxZJam7-39" value="" style="html=1;shadow=0;dashed=0;shape=mxgraph.bootstrap.leftButton;strokeColor=inherit;gradientColor=inherit;fontColor=inherit;fillColor=#E9ECEF;rSize=5;perimeter=none;whiteSpace=wrap;resizeHeight=1;fontSize=14;" parent="OTNIbcTi5ZiTMBxZJam7-38" vertex="1">
          <mxGeometry width="11" height="20" as="geometry" />
        </mxCell>
        <mxCell id="OTNIbcTi5ZiTMBxZJam7-40" value="" style="html=1;shadow=0;dashed=0;shape=mxgraph.bootstrap.checkbox2;labelPosition=right;verticalLabelPosition=middle;align=left;verticalAlign=middle;gradientColor=#DEDEDE;fillColor=#EDEDED;strokeColor=#A6A6A6;checked=0;spacing=5;checkedFill=#0085FC;checkedStroke=#ffffff;" parent="OTNIbcTi5ZiTMBxZJam7-39" vertex="1">
          <mxGeometry x="0.5" y="0.5" width="10" height="10" relative="1" as="geometry">
            <mxPoint x="-5" y="-5" as="offset" />
          </mxGeometry>
        </mxCell>
        <mxCell id="OTNIbcTi5ZiTMBxZJam7-41" value="Yorum alanı ekle" style="html=1;shadow=0;dashed=0;shape=mxgraph.bootstrap.rrect;rSize=5;strokeColor=#CED4DA;html=1;whiteSpace=wrap;fillColor=#FFFFFF;fontColor=#7D868C;align=left;spacing=15;spacingLeft=40;fontSize=14;" parent="1" vertex="1">
          <mxGeometry x="930" y="845" width="220" height="20" as="geometry" />
        </mxCell>
        <mxCell id="OTNIbcTi5ZiTMBxZJam7-42" value="" style="html=1;shadow=0;dashed=0;shape=mxgraph.bootstrap.leftButton;strokeColor=inherit;gradientColor=inherit;fontColor=inherit;fillColor=#E9ECEF;rSize=5;perimeter=none;whiteSpace=wrap;resizeHeight=1;fontSize=14;" parent="OTNIbcTi5ZiTMBxZJam7-41" vertex="1">
          <mxGeometry width="11" height="20" as="geometry" />
        </mxCell>
        <mxCell id="OTNIbcTi5ZiTMBxZJam7-43" value="" style="html=1;shadow=0;dashed=0;shape=mxgraph.bootstrap.checkbox2;labelPosition=right;verticalLabelPosition=middle;align=left;verticalAlign=middle;gradientColor=#DEDEDE;fillColor=#EDEDED;strokeColor=#A6A6A6;checked=0;spacing=5;checkedFill=#0085FC;checkedStroke=#ffffff;" parent="OTNIbcTi5ZiTMBxZJam7-42" vertex="1">
          <mxGeometry x="0.5" y="0.5" width="10" height="10" relative="1" as="geometry">
            <mxPoint x="-5" y="-5" as="offset" />
          </mxGeometry>
        </mxCell>
        <mxCell id="OTNIbcTi5ZiTMBxZJam7-47" value="" style="rounded=1;whiteSpace=wrap;html=1;fillColor=#f5f5f5;fontColor=#333333;strokeColor=#666666;arcSize=8;" parent="1" vertex="1">
          <mxGeometry x="920" y="920" width="240" height="100" as="geometry" />
        </mxCell>
        <mxCell id="OTNIbcTi5ZiTMBxZJam7-48" value="Etiket Soru2" style="rounded=0;whiteSpace=wrap;html=1;strokeWidth=2;" parent="1" vertex="1">
          <mxGeometry x="920" y="880" width="240" height="40" as="geometry" />
        </mxCell>
        <mxCell id="OTNIbcTi5ZiTMBxZJam7-49" value="" style="rounded=0;whiteSpace=wrap;html=1;shadow=1;" parent="1" vertex="1">
          <mxGeometry x="930" y="940" width="220" height="60" as="geometry" />
        </mxCell>
        <mxCell id="OTNIbcTi5ZiTMBxZJam7-50" value="Removable tag1" style="dashed=0;html=1;fillColor=#F0F2F5;strokeColor=none;align=left;rounded=1;arcSize=10;fontColor=#596780;fontStyle=1;fontSize=8;shadow=0;spacingLeft=3" parent="1" vertex="1">
          <mxGeometry x="940" y="950" width="100" height="20" as="geometry" />
        </mxCell>
        <mxCell id="OTNIbcTi5ZiTMBxZJam7-51" value="" style="html=1;shadow=0;dashed=0;shape=mxgraph.atlassian.x;strokeColor=#596780;strokeWidth=2" parent="OTNIbcTi5ZiTMBxZJam7-50" vertex="1">
          <mxGeometry x="1" y="0.5" width="6" height="6" relative="1" as="geometry">
            <mxPoint x="-11" y="-3" as="offset" />
          </mxGeometry>
        </mxCell>
        <mxCell id="OTNIbcTi5ZiTMBxZJam7-52" value="Removable tag3" style="dashed=0;html=1;fillColor=#F0F2F5;strokeColor=none;align=left;rounded=1;arcSize=10;fontColor=#596780;fontStyle=1;fontSize=8;shadow=0;spacingLeft=3" parent="1" vertex="1">
          <mxGeometry x="940" y="970" width="100" height="20" as="geometry" />
        </mxCell>
        <mxCell id="OTNIbcTi5ZiTMBxZJam7-53" value="" style="html=1;shadow=0;dashed=0;shape=mxgraph.atlassian.x;strokeColor=#596780;strokeWidth=2" parent="OTNIbcTi5ZiTMBxZJam7-52" vertex="1">
          <mxGeometry x="1" y="0.5" width="6" height="6" relative="1" as="geometry">
            <mxPoint x="-11" y="-3" as="offset" />
          </mxGeometry>
        </mxCell>
        <mxCell id="OTNIbcTi5ZiTMBxZJam7-54" value="Removable tag4" style="dashed=0;html=1;fillColor=#F0F2F5;strokeColor=none;align=left;rounded=1;arcSize=10;fontColor=#596780;fontStyle=1;fontSize=8;shadow=0;spacingLeft=3" parent="1" vertex="1">
          <mxGeometry x="1040" y="970" width="100" height="20" as="geometry" />
        </mxCell>
        <mxCell id="OTNIbcTi5ZiTMBxZJam7-55" value="" style="html=1;shadow=0;dashed=0;shape=mxgraph.atlassian.x;strokeColor=#596780;strokeWidth=2" parent="OTNIbcTi5ZiTMBxZJam7-54" vertex="1">
          <mxGeometry x="1" y="0.5" width="6" height="6" relative="1" as="geometry">
            <mxPoint x="-11" y="-3" as="offset" />
          </mxGeometry>
        </mxCell>
        <mxCell id="OTNIbcTi5ZiTMBxZJam7-56" value="Removable tag2" style="dashed=0;html=1;fillColor=#F0F2F5;strokeColor=none;align=left;rounded=1;arcSize=10;fontColor=#596780;fontStyle=1;fontSize=8;shadow=0;spacingLeft=3" parent="1" vertex="1">
          <mxGeometry x="1040" y="950" width="100" height="20" as="geometry" />
        </mxCell>
        <mxCell id="OTNIbcTi5ZiTMBxZJam7-57" value="" style="html=1;shadow=0;dashed=0;shape=mxgraph.atlassian.x;strokeColor=#596780;strokeWidth=2" parent="OTNIbcTi5ZiTMBxZJam7-56" vertex="1">
          <mxGeometry x="1" y="0.5" width="6" height="6" relative="1" as="geometry">
            <mxPoint x="-11" y="-3" as="offset" />
          </mxGeometry>
        </mxCell>
        <mxCell id="OTNIbcTi5ZiTMBxZJam7-59" value="Dropdown button" style="rounded=1;html=1;whiteSpace=wrap;align=left;fontSize=12;spacingLeft=10;sketch=0;" parent="1" vertex="1">
          <mxGeometry x="1010" y="430" width="140" height="30" as="geometry" />
        </mxCell>
        <mxCell id="OTNIbcTi5ZiTMBxZJam7-60" value="" style="shape=triangle;direction=south;fillColor=#596780;strokeColor=none;html=1;sketch=0;" parent="OTNIbcTi5ZiTMBxZJam7-59" vertex="1">
          <mxGeometry x="1" y="0.5" width="12" height="6" relative="1" as="geometry">
            <mxPoint x="-20" y="-3" as="offset" />
          </mxGeometry>
        </mxCell>
        <mxCell id="OTNIbcTi5ZiTMBxZJam7-61" value="Dropdown button" style="rounded=1;html=1;whiteSpace=wrap;align=left;fontSize=12;spacingLeft=10;sketch=0;" parent="1" vertex="1">
          <mxGeometry x="1010" y="490" width="140" height="30" as="geometry" />
        </mxCell>
        <mxCell id="OTNIbcTi5ZiTMBxZJam7-62" value="" style="shape=triangle;direction=south;fillColor=#596780;strokeColor=none;html=1;sketch=0;" parent="OTNIbcTi5ZiTMBxZJam7-61" vertex="1">
          <mxGeometry x="1" y="0.5" width="12" height="6" relative="1" as="geometry">
            <mxPoint x="-20" y="-3" as="offset" />
          </mxGeometry>
        </mxCell>
        <mxCell id="OTNIbcTi5ZiTMBxZJam7-63" value="Etiket Filtre" style="rounded=1;whiteSpace=wrap;html=1;" parent="1" vertex="1">
          <mxGeometry x="930" y="430" width="80" height="30" as="geometry" />
        </mxCell>
        <mxCell id="OTNIbcTi5ZiTMBxZJam7-64" value="Soru Filtre" style="rounded=1;whiteSpace=wrap;html=1;" parent="1" vertex="1">
          <mxGeometry x="930" y="490" width="80" height="30" as="geometry" />
        </mxCell>
        <mxCell id="OTNIbcTi5ZiTMBxZJam7-67" value="Soru grubu için katsayı giriniz.&amp;nbsp;" style="rounded=0;whiteSpace=wrap;html=1;shadow=1;align=left;" parent="1" vertex="1">
          <mxGeometry x="930" y="307" width="220" height="30" as="geometry" />
        </mxCell>
      </root>
    </mxGraphModel>
  </diagram>
</mxfile>
